M48
; DRILL file {KiCad 7.0.10} date Wed Mar 13 10:51:02 2024
; FORMAT={-:-/ absolute / metric / decimal}
; #@! TF.CreationDate,2024-03-13T10:51:02+00:00
; #@! TF.GenerationSoftware,Kicad,Pcbnew,7.0.10
; #@! TF.FileFunction,MixedPlating,1,2
FMAT,2
METRIC
; #@! TA.AperFunction,Plated,PTH,ViaDrill
T1C0.300
; #@! TA.AperFunction,Plated,PTH,ComponentDrill
T2C1.016
; #@! TA.AperFunction,NonPlated,NPTH,ComponentDrill
T3C3.302
%
G90
G05
T1
X0.813Y111.474
X0.813Y85.574
X0.813Y59.674
X0.813Y33.774
X0.813Y7.874
X2.286Y121.38
X2.286Y95.48
X2.286Y69.58
X2.286Y43.68
X2.286Y17.78
X2.54Y116.3
X2.54Y90.4
X2.54Y64.5
X2.54Y38.6
X2.54Y12.7
X5.08Y124.428
X5.08Y119.094
X5.08Y113.252
X5.08Y106.14
X5.08Y98.528
X5.08Y93.194
X5.08Y87.352
X5.08Y80.24
X5.08Y72.628
X5.08Y67.294
X5.08Y61.452
X5.08Y54.34
X5.08Y46.728
X5.08Y41.394
X5.08Y35.552
X5.08Y28.44
X5.08Y20.828
X5.08Y15.494
X5.08Y9.652
X5.08Y2.54
X5.588Y111.474
X5.588Y85.574
X5.588Y59.674
X5.588Y33.774
X5.588Y7.874
X6.096Y114.268
X6.096Y88.368
X6.096Y62.468
X6.096Y36.568
X6.096Y10.668
X6.604Y121.253
X6.604Y118.332
X6.604Y95.353
X6.604Y92.432
X6.604Y69.453
X6.604Y66.532
X6.604Y43.553
X6.604Y40.632
X6.604Y17.653
X6.604Y14.732
X7.366Y128.238
X7.366Y122.65
X7.366Y102.338
X7.366Y96.75
X7.366Y76.438
X7.366Y70.85
X7.366Y50.538
X7.366Y44.95
X7.366Y24.638
X7.366Y19.05
X8.128Y118.332
X8.128Y92.432
X8.128Y66.532
X8.128Y40.632
X8.128Y14.732
X8.166Y121.215
X8.166Y95.315
X8.166Y69.415
X8.166Y43.515
X8.166Y17.615
X8.89Y114.268
X8.89Y88.368
X8.89Y62.468
X8.89Y36.568
X8.89Y10.668
X9.766Y122.015
X9.766Y96.115
X9.766Y70.215
X9.766Y44.315
X9.766Y18.415
X10.287Y120.491
X10.287Y94.591
X10.287Y68.691
X10.287Y42.791
X10.287Y16.891
X10.414Y116.3
X10.414Y90.4
X10.414Y64.5
X10.414Y38.6
X10.414Y12.7
X10.541Y115.03
X10.541Y89.13
X10.541Y63.23
X10.541Y37.33
X10.541Y11.43
X10.604Y113.316
X10.604Y87.415
X10.604Y61.515
X10.604Y35.615
X10.604Y9.715
X10.668Y121.761
X10.668Y95.861
X10.668Y69.961
X10.668Y44.061
X10.668Y18.161
X11.43Y124.047
X11.43Y98.147
X11.43Y72.247
X11.43Y46.347
X11.43Y20.447
X12.573Y113.252
X12.573Y87.352
X12.573Y61.452
X12.573Y35.552
X12.573Y9.652
X12.7Y126.587
X12.7Y108.299
X12.7Y105.886
X12.7Y100.687
X12.7Y82.399
X12.7Y79.986
X12.7Y74.787
X12.7Y56.499
X12.7Y54.086
X12.7Y48.887
X12.7Y30.599
X12.7Y28.186
X12.7Y22.987
X12.7Y4.699
X12.7Y2.286
X14.732Y122.663
X14.732Y121.126
X14.732Y118.332
X14.732Y96.763
X14.732Y95.226
X14.732Y92.432
X14.732Y70.863
X14.732Y69.326
X14.732Y66.532
X14.732Y44.963
X14.732Y43.426
X14.732Y40.632
X14.732Y19.063
X14.732Y17.526
X14.732Y14.732
X14.793Y116.111
X14.793Y90.212
X14.793Y64.311
X14.793Y38.411
X14.793Y12.511
X15.138Y114.065
X15.138Y88.165
X15.138Y62.265
X15.138Y36.365
X15.138Y10.465
X16.129Y111.855
X16.129Y85.955
X16.129Y60.055
X16.129Y34.155
X16.129Y8.255
X16.764Y118.332
X16.764Y92.432
X16.764Y66.532
X16.764Y40.632
X16.764Y14.732
X17.145Y111.22
X17.145Y85.32
X17.145Y59.42
X17.145Y33.52
X17.145Y7.62
X17.526Y114.268
X17.526Y88.368
X17.526Y62.468
X17.526Y36.568
X17.526Y10.668
X18.034Y128.238
X18.034Y102.338
X18.034Y76.438
X18.034Y50.538
X18.034Y24.638
X18.542Y114.268
X18.542Y88.368
X18.542Y62.468
X18.542Y36.568
X18.542Y10.668
X18.669Y124.047
X18.669Y98.147
X18.669Y72.247
X18.669Y46.347
X18.669Y20.447
X19.05Y118.332
X19.05Y92.432
X19.05Y66.532
X19.05Y40.632
X19.05Y14.732
X19.431Y124.428
X19.431Y98.528
X19.431Y72.628
X19.431Y46.728
X19.431Y20.828
X19.685Y111.347
X19.685Y85.447
X19.685Y59.547
X19.685Y33.647
X19.685Y7.747
X19.939Y107.664
X19.939Y81.764
X19.939Y55.864
X19.939Y29.964
X19.939Y4.064
X20.32Y113.76
X20.32Y87.86
X20.32Y61.96
X20.32Y36.06
X20.32Y10.16
X22.86Y121.38
X22.86Y116.3
X22.86Y95.48
X22.86Y90.4
X22.86Y69.58
X22.86Y64.5
X22.86Y43.68
X22.86Y38.6
X22.86Y17.78
X22.86Y12.7
X24.333Y111.372
X24.333Y85.472
X24.333Y59.572
X24.333Y33.672
X24.333Y7.772
X26.713Y111.474
X26.713Y85.574
X26.713Y59.674
X26.713Y33.774
X26.713Y7.874
X28.186Y121.38
X28.186Y95.48
X28.186Y69.58
X28.186Y43.68
X28.186Y17.78
X28.44Y116.3
X28.44Y90.4
X28.44Y64.5
X28.44Y38.6
X28.44Y12.7
X30.98Y124.428
X30.98Y119.094
X30.98Y113.252
X30.98Y106.14
X30.98Y98.528
X30.98Y93.194
X30.98Y87.352
X30.98Y80.24
X30.98Y72.628
X30.98Y67.294
X30.98Y61.452
X30.98Y54.34
X30.98Y46.728
X30.98Y41.394
X30.98Y35.552
X30.98Y28.44
X30.98Y20.828
X30.98Y15.494
X30.98Y9.652
X30.98Y2.54
X31.488Y111.474
X31.488Y85.574
X31.488Y59.674
X31.488Y33.774
X31.488Y7.874
X31.996Y114.268
X31.996Y88.368
X31.996Y62.468
X31.996Y36.568
X31.996Y10.668
X32.504Y121.253
X32.504Y118.332
X32.504Y95.353
X32.504Y92.432
X32.504Y69.453
X32.504Y66.532
X32.504Y43.553
X32.504Y40.632
X32.504Y17.653
X32.504Y14.732
X33.266Y128.238
X33.266Y122.65
X33.266Y102.338
X33.266Y96.75
X33.266Y76.438
X33.266Y70.85
X33.266Y50.538
X33.266Y44.95
X33.266Y24.638
X33.266Y19.05
X34.028Y118.332
X34.028Y92.432
X34.028Y66.532
X34.028Y40.632
X34.028Y14.732
X34.066Y121.215
X34.066Y95.315
X34.066Y69.415
X34.066Y43.515
X34.066Y17.615
X34.79Y114.268
X34.79Y88.368
X34.79Y62.468
X34.79Y36.568
X34.79Y10.668
X35.666Y122.015
X35.666Y96.115
X35.666Y70.215
X35.666Y44.315
X35.666Y18.415
X36.187Y120.491
X36.187Y94.591
X36.187Y68.691
X36.187Y42.791
X36.187Y16.891
X36.314Y116.3
X36.314Y90.4
X36.314Y64.5
X36.314Y38.6
X36.314Y12.7
X36.441Y115.03
X36.441Y89.13
X36.441Y63.23
X36.441Y37.33
X36.441Y11.43
X36.505Y113.316
X36.505Y87.415
X36.505Y61.515
X36.505Y35.615
X36.505Y9.715
X36.568Y121.761
X36.568Y95.861
X36.568Y69.961
X36.568Y44.061
X36.568Y18.161
X37.33Y124.047
X37.33Y98.147
X37.33Y72.247
X37.33Y46.347
X37.33Y20.447
X38.473Y113.252
X38.473Y87.352
X38.473Y61.452
X38.473Y35.552
X38.473Y9.652
X38.6Y126.587
X38.6Y108.299
X38.6Y105.886
X38.6Y100.687
X38.6Y82.399
X38.6Y79.986
X38.6Y74.787
X38.6Y56.499
X38.6Y54.086
X38.6Y48.887
X38.6Y30.599
X38.6Y28.186
X38.6Y22.987
X38.6Y4.699
X38.6Y2.286
X40.632Y122.663
X40.632Y121.126
X40.632Y118.332
X40.632Y96.763
X40.632Y95.226
X40.632Y92.432
X40.632Y70.863
X40.632Y69.326
X40.632Y66.532
X40.632Y44.963
X40.632Y43.426
X40.632Y40.632
X40.632Y19.063
X40.632Y17.526
X40.632Y14.732
X40.694Y116.111
X40.694Y90.212
X40.694Y64.311
X40.694Y38.411
X40.694Y12.511
X41.038Y114.065
X41.038Y88.165
X41.038Y62.265
X41.038Y36.365
X41.038Y10.465
X42.029Y111.855
X42.029Y85.955
X42.029Y60.055
X42.029Y34.155
X42.029Y8.255
X42.664Y118.332
X42.664Y92.432
X42.664Y66.532
X42.664Y40.632
X42.664Y14.732
X43.045Y111.22
X43.045Y85.32
X43.045Y59.42
X43.045Y33.52
X43.045Y7.62
X43.426Y114.268
X43.426Y88.368
X43.426Y62.468
X43.426Y36.568
X43.426Y10.668
X43.934Y128.238
X43.934Y102.338
X43.934Y76.438
X43.934Y50.538
X43.934Y24.638
X44.442Y114.268
X44.442Y88.368
X44.442Y62.468
X44.442Y36.568
X44.442Y10.668
X44.569Y124.047
X44.569Y98.147
X44.569Y72.247
X44.569Y46.347
X44.569Y20.447
X44.95Y118.332
X44.95Y92.432
X44.95Y66.532
X44.95Y40.632
X44.95Y14.732
X45.331Y124.428
X45.331Y98.528
X45.331Y72.628
X45.331Y46.728
X45.331Y20.828
X45.585Y111.347
X45.585Y85.447
X45.585Y59.547
X45.585Y33.647
X45.585Y7.747
X45.839Y107.664
X45.839Y81.764
X45.839Y55.864
X45.839Y29.964
X45.839Y4.064
X46.22Y113.76
X46.22Y87.86
X46.22Y61.96
X46.22Y36.06
X46.22Y10.16
X48.76Y121.38
X48.76Y116.3
X48.76Y95.48
X48.76Y90.4
X48.76Y69.58
X48.76Y64.5
X48.76Y43.68
X48.76Y38.6
X48.76Y17.78
X48.76Y12.7
X50.233Y111.372
X50.233Y85.472
X50.233Y59.572
X50.233Y33.672
X50.233Y7.772
X52.613Y111.474
X52.613Y85.574
X52.613Y59.674
X52.613Y33.774
X52.613Y7.874
X54.086Y121.38
X54.086Y95.48
X54.086Y69.58
X54.086Y43.68
X54.086Y17.78
X54.34Y116.3
X54.34Y90.4
X54.34Y64.5
X54.34Y38.6
X54.34Y12.7
X56.88Y124.428
X56.88Y119.094
X56.88Y113.252
X56.88Y106.14
X56.88Y98.528
X56.88Y93.194
X56.88Y87.352
X56.88Y80.24
X56.88Y72.628
X56.88Y67.294
X56.88Y61.452
X56.88Y54.34
X56.88Y46.728
X56.88Y41.394
X56.88Y35.552
X56.88Y28.44
X56.88Y20.828
X56.88Y15.494
X56.88Y9.652
X56.88Y2.54
X57.388Y111.474
X57.388Y85.574
X57.388Y59.674
X57.388Y33.774
X57.388Y7.874
X57.896Y114.268
X57.896Y88.368
X57.896Y62.468
X57.896Y36.568
X57.896Y10.668
X58.404Y121.253
X58.404Y118.332
X58.404Y95.353
X58.404Y92.432
X58.404Y69.453
X58.404Y66.532
X58.404Y43.553
X58.404Y40.632
X58.404Y17.653
X58.404Y14.732
X59.166Y128.238
X59.166Y122.65
X59.166Y102.338
X59.166Y96.75
X59.166Y76.438
X59.166Y70.85
X59.166Y50.538
X59.166Y44.95
X59.166Y24.638
X59.166Y19.05
X59.928Y118.332
X59.928Y92.432
X59.928Y66.532
X59.928Y40.632
X59.928Y14.732
X59.966Y121.215
X59.966Y95.315
X59.966Y69.415
X59.966Y43.515
X59.966Y17.615
X60.69Y114.268
X60.69Y88.368
X60.69Y62.468
X60.69Y36.568
X60.69Y10.668
X61.566Y122.015
X61.566Y96.115
X61.566Y70.215
X61.566Y44.315
X61.566Y18.415
X62.087Y120.491
X62.087Y94.591
X62.087Y68.691
X62.087Y42.791
X62.087Y16.891
X62.214Y116.3
X62.214Y90.4
X62.214Y64.5
X62.214Y38.6
X62.214Y12.7
X62.341Y115.03
X62.341Y89.13
X62.341Y63.23
X62.341Y37.33
X62.341Y11.43
X62.404Y113.316
X62.404Y87.415
X62.404Y61.515
X62.404Y35.615
X62.404Y9.715
X62.468Y121.761
X62.468Y95.861
X62.468Y69.961
X62.468Y44.061
X62.468Y18.161
X63.23Y124.047
X63.23Y98.147
X63.23Y72.247
X63.23Y46.347
X63.23Y20.447
X64.373Y113.252
X64.373Y87.352
X64.373Y61.452
X64.373Y35.552
X64.373Y9.652
X64.5Y126.587
X64.5Y108.299
X64.5Y105.886
X64.5Y100.687
X64.5Y82.399
X64.5Y79.986
X64.5Y74.787
X64.5Y56.499
X64.5Y54.086
X64.5Y48.887
X64.5Y30.599
X64.5Y28.186
X64.5Y22.987
X64.5Y4.699
X64.5Y2.286
X66.532Y122.663
X66.532Y121.126
X66.532Y118.332
X66.532Y96.763
X66.532Y95.226
X66.532Y92.432
X66.532Y70.863
X66.532Y69.326
X66.532Y66.532
X66.532Y44.963
X66.532Y43.426
X66.532Y40.632
X66.532Y19.063
X66.532Y17.526
X66.532Y14.732
X66.593Y116.111
X66.593Y90.212
X66.593Y64.311
X66.593Y38.411
X66.593Y12.511
X66.938Y114.065
X66.938Y88.165
X66.938Y62.265
X66.938Y36.365
X66.938Y10.465
X67.929Y111.855
X67.929Y85.955
X67.929Y60.055
X67.929Y34.155
X67.929Y8.255
X68.564Y118.332
X68.564Y92.432
X68.564Y66.532
X68.564Y40.632
X68.564Y14.732
X68.945Y111.22
X68.945Y85.32
X68.945Y59.42
X68.945Y33.52
X68.945Y7.62
X69.326Y114.268
X69.326Y88.368
X69.326Y62.468
X69.326Y36.568
X69.326Y10.668
X69.834Y128.238
X69.834Y102.338
X69.834Y76.438
X69.834Y50.538
X69.834Y24.638
X70.342Y114.268
X70.342Y88.368
X70.342Y62.468
X70.342Y36.568
X70.342Y10.668
X70.469Y124.047
X70.469Y98.147
X70.469Y72.247
X70.469Y46.347
X70.469Y20.447
X70.85Y118.332
X70.85Y92.432
X70.85Y66.532
X70.85Y40.632
X70.85Y14.732
X71.231Y124.428
X71.231Y98.528
X71.231Y72.628
X71.231Y46.728
X71.231Y20.828
X71.485Y111.347
X71.485Y85.447
X71.485Y59.547
X71.485Y33.647
X71.485Y7.747
X71.739Y107.664
X71.739Y81.764
X71.739Y55.864
X71.739Y29.964
X71.739Y4.064
X72.12Y113.76
X72.12Y87.86
X72.12Y61.96
X72.12Y36.06
X72.12Y10.16
X74.66Y121.38
X74.66Y116.3
X74.66Y95.48
X74.66Y90.4
X74.66Y69.58
X74.66Y64.5
X74.66Y43.68
X74.66Y38.6
X74.66Y17.78
X74.66Y12.7
X76.133Y111.372
X76.133Y85.472
X76.133Y59.572
X76.133Y33.672
X76.133Y7.772
X78.513Y111.474
X78.513Y85.574
X78.513Y59.674
X78.513Y33.774
X78.513Y7.874
X79.986Y121.38
X79.986Y95.48
X79.986Y69.58
X79.986Y43.68
X79.986Y17.78
X80.24Y116.3
X80.24Y90.4
X80.24Y64.5
X80.24Y38.6
X80.24Y12.7
X82.78Y124.428
X82.78Y119.094
X82.78Y113.252
X82.78Y106.14
X82.78Y98.528
X82.78Y93.194
X82.78Y87.352
X82.78Y80.24
X82.78Y72.628
X82.78Y67.294
X82.78Y61.452
X82.78Y54.34
X82.78Y46.728
X82.78Y41.394
X82.78Y35.552
X82.78Y28.44
X82.78Y20.828
X82.78Y15.494
X82.78Y9.652
X82.78Y2.54
X83.288Y111.474
X83.288Y85.574
X83.288Y59.674
X83.288Y33.774
X83.288Y7.874
X83.796Y114.268
X83.796Y88.368
X83.796Y62.468
X83.796Y36.568
X83.796Y10.668
X84.304Y121.253
X84.304Y118.332
X84.304Y95.353
X84.304Y92.432
X84.304Y69.453
X84.304Y66.532
X84.304Y43.553
X84.304Y40.632
X84.304Y17.653
X84.304Y14.732
X85.066Y128.238
X85.066Y122.65
X85.066Y102.338
X85.066Y96.75
X85.066Y76.438
X85.066Y70.85
X85.066Y50.538
X85.066Y44.95
X85.066Y24.638
X85.066Y19.05
X85.828Y118.332
X85.828Y92.432
X85.828Y66.532
X85.828Y40.632
X85.828Y14.732
X85.866Y121.215
X85.866Y95.315
X85.866Y69.415
X85.866Y43.515
X85.866Y17.615
X86.59Y114.268
X86.59Y88.368
X86.59Y62.468
X86.59Y36.568
X86.59Y10.668
X87.466Y122.015
X87.466Y96.115
X87.466Y70.215
X87.466Y44.315
X87.466Y18.415
X87.987Y120.491
X87.987Y94.591
X87.987Y68.691
X87.987Y42.791
X87.987Y16.891
X88.114Y116.3
X88.114Y90.4
X88.114Y64.5
X88.114Y38.6
X88.114Y12.7
X88.241Y115.03
X88.241Y89.13
X88.241Y63.23
X88.241Y37.33
X88.241Y11.43
X88.304Y113.316
X88.304Y87.415
X88.304Y61.515
X88.304Y35.615
X88.304Y9.715
X88.368Y121.761
X88.368Y95.861
X88.368Y69.961
X88.368Y44.061
X88.368Y18.161
X89.13Y124.047
X89.13Y98.147
X89.13Y72.247
X89.13Y46.347
X89.13Y20.447
X90.273Y113.252
X90.273Y87.352
X90.273Y61.452
X90.273Y35.552
X90.273Y9.652
X90.4Y126.587
X90.4Y108.299
X90.4Y105.886
X90.4Y100.687
X90.4Y82.399
X90.4Y79.986
X90.4Y74.787
X90.4Y56.499
X90.4Y54.086
X90.4Y48.887
X90.4Y30.599
X90.4Y28.186
X90.4Y22.987
X90.4Y4.699
X90.4Y2.286
X92.432Y122.663
X92.432Y121.126
X92.432Y118.332
X92.432Y96.763
X92.432Y95.226
X92.432Y92.432
X92.432Y70.863
X92.432Y69.326
X92.432Y66.532
X92.432Y44.963
X92.432Y43.426
X92.432Y40.632
X92.432Y19.063
X92.432Y17.526
X92.432Y14.732
X92.493Y116.111
X92.493Y90.212
X92.493Y64.311
X92.493Y38.411
X92.493Y12.511
X92.838Y114.065
X92.838Y88.165
X92.838Y62.265
X92.838Y36.365
X92.838Y10.465
X93.829Y111.855
X93.829Y85.955
X93.829Y60.055
X93.829Y34.155
X93.829Y8.255
X94.464Y118.332
X94.464Y92.432
X94.464Y66.532
X94.464Y40.632
X94.464Y14.732
X94.845Y111.22
X94.845Y85.32
X94.845Y59.42
X94.845Y33.52
X94.845Y7.62
X95.226Y114.268
X95.226Y88.368
X95.226Y62.468
X95.226Y36.568
X95.226Y10.668
X95.734Y128.238
X95.734Y102.338
X95.734Y76.438
X95.734Y50.538
X95.734Y24.638
X96.242Y114.268
X96.242Y88.368
X96.242Y62.468
X96.242Y36.568
X96.242Y10.668
X96.369Y124.047
X96.369Y98.147
X96.369Y72.247
X96.369Y46.347
X96.369Y20.447
X96.75Y118.332
X96.75Y92.432
X96.75Y66.532
X96.75Y40.632
X96.75Y14.732
X97.131Y124.428
X97.131Y98.528
X97.131Y72.628
X97.131Y46.728
X97.131Y20.828
X97.385Y111.347
X97.385Y85.447
X97.385Y59.547
X97.385Y33.647
X97.385Y7.747
X97.639Y107.664
X97.639Y81.764
X97.639Y55.864
X97.639Y29.964
X97.639Y4.064
X98.02Y113.76
X98.02Y87.86
X98.02Y61.96
X98.02Y36.06
X98.02Y10.16
X100.56Y121.38
X100.56Y116.3
X100.56Y95.48
X100.56Y90.4
X100.56Y69.58
X100.56Y64.5
X100.56Y43.68
X100.56Y38.6
X100.56Y17.78
X100.56Y12.7
X102.033Y111.372
X102.033Y85.472
X102.033Y59.572
X102.033Y33.672
X102.033Y7.772
X104.413Y111.474
X104.413Y85.574
X104.413Y59.674
X104.413Y33.774
X104.413Y7.874
X105.886Y121.38
X105.886Y95.48
X105.886Y69.58
X105.886Y43.68
X105.886Y17.78
X106.14Y116.3
X106.14Y90.4
X106.14Y64.5
X106.14Y38.6
X106.14Y12.7
X108.68Y124.428
X108.68Y119.094
X108.68Y113.252
X108.68Y106.14
X108.68Y98.528
X108.68Y93.194
X108.68Y87.352
X108.68Y80.24
X108.68Y72.628
X108.68Y67.294
X108.68Y61.452
X108.68Y54.34
X108.68Y46.728
X108.68Y41.394
X108.68Y35.552
X108.68Y28.44
X108.68Y20.828
X108.68Y15.494
X108.68Y9.652
X108.68Y2.54
X109.188Y111.474
X109.188Y85.574
X109.188Y59.674
X109.188Y33.774
X109.188Y7.874
X109.696Y114.268
X109.696Y88.368
X109.696Y62.468
X109.696Y36.568
X109.696Y10.668
X110.204Y121.253
X110.204Y118.332
X110.204Y95.353
X110.204Y92.432
X110.204Y69.453
X110.204Y66.532
X110.204Y43.553
X110.204Y40.632
X110.204Y17.653
X110.204Y14.732
X110.966Y128.238
X110.966Y122.65
X110.966Y102.338
X110.966Y96.75
X110.966Y76.438
X110.966Y70.85
X110.966Y50.538
X110.966Y44.95
X110.966Y24.638
X110.966Y19.05
X111.728Y118.332
X111.728Y92.432
X111.728Y66.532
X111.728Y40.632
X111.728Y14.732
X111.766Y121.215
X111.766Y95.315
X111.766Y69.415
X111.766Y43.515
X111.766Y17.615
X112.49Y114.268
X112.49Y88.368
X112.49Y62.468
X112.49Y36.568
X112.49Y10.668
X113.366Y122.015
X113.366Y96.115
X113.366Y70.215
X113.366Y44.315
X113.366Y18.415
X113.887Y120.491
X113.887Y94.591
X113.887Y68.691
X113.887Y42.791
X113.887Y16.891
X114.014Y116.3
X114.014Y90.4
X114.014Y64.5
X114.014Y38.6
X114.014Y12.7
X114.141Y115.03
X114.141Y89.13
X114.141Y63.23
X114.141Y37.33
X114.141Y11.43
X114.204Y113.316
X114.204Y87.415
X114.204Y61.515
X114.204Y35.615
X114.204Y9.715
X114.268Y121.761
X114.268Y95.861
X114.268Y69.961
X114.268Y44.061
X114.268Y18.161
X115.03Y124.047
X115.03Y98.147
X115.03Y72.247
X115.03Y46.347
X115.03Y20.447
X116.173Y113.252
X116.173Y87.352
X116.173Y61.452
X116.173Y35.552
X116.173Y9.652
X116.3Y126.587
X116.3Y108.299
X116.3Y105.886
X116.3Y100.687
X116.3Y82.399
X116.3Y79.986
X116.3Y74.787
X116.3Y56.499
X116.3Y54.086
X116.3Y48.887
X116.3Y30.599
X116.3Y28.186
X116.3Y22.987
X116.3Y4.699
X116.3Y2.286
X118.332Y122.663
X118.332Y121.126
X118.332Y118.332
X118.332Y96.763
X118.332Y95.226
X118.332Y92.432
X118.332Y70.863
X118.332Y69.326
X118.332Y66.532
X118.332Y44.963
X118.332Y43.426
X118.332Y40.632
X118.332Y19.063
X118.332Y17.526
X118.332Y14.732
X118.393Y116.111
X118.393Y90.212
X118.393Y64.311
X118.393Y38.411
X118.393Y12.511
X118.738Y114.065
X118.738Y88.165
X118.738Y62.265
X118.738Y36.365
X118.738Y10.465
X119.729Y111.855
X119.729Y85.955
X119.729Y60.055
X119.729Y34.155
X119.729Y8.255
X120.364Y118.332
X120.364Y92.432
X120.364Y66.532
X120.364Y40.632
X120.364Y14.732
X120.745Y111.22
X120.745Y85.32
X120.745Y59.42
X120.745Y33.52
X120.745Y7.62
X121.126Y114.268
X121.126Y88.368
X121.126Y62.468
X121.126Y36.568
X121.126Y10.668
X121.634Y128.238
X121.634Y102.338
X121.634Y76.438
X121.634Y50.538
X121.634Y24.638
X122.142Y114.268
X122.142Y88.368
X122.142Y62.468
X122.142Y36.568
X122.142Y10.668
X122.269Y124.047
X122.269Y98.147
X122.269Y72.247
X122.269Y46.347
X122.269Y20.447
X122.65Y118.332
X122.65Y92.432
X122.65Y66.532
X122.65Y40.632
X122.65Y14.732
X123.031Y124.428
X123.031Y98.528
X123.031Y72.628
X123.031Y46.728
X123.031Y20.828
X123.285Y111.347
X123.285Y85.447
X123.285Y59.547
X123.285Y33.647
X123.285Y7.747
X123.539Y107.664
X123.539Y81.764
X123.539Y55.864
X123.539Y29.964
X123.539Y4.064
X123.92Y113.76
X123.92Y87.86
X123.92Y61.96
X123.92Y36.06
X123.92Y10.16
X126.46Y121.38
X126.46Y116.3
X126.46Y95.48
X126.46Y90.4
X126.46Y69.58
X126.46Y64.5
X126.46Y43.68
X126.46Y38.6
X126.46Y17.78
X126.46Y12.7
X127.933Y111.372
X127.933Y85.472
X127.933Y59.572
X127.933Y33.672
X127.933Y7.772
X130.313Y111.474
X130.313Y85.574
X130.313Y59.674
X130.313Y33.774
X130.313Y7.874
X131.786Y121.38
X131.786Y95.48
X131.786Y69.58
X131.786Y43.68
X131.786Y17.78
X132.04Y116.3
X132.04Y90.4
X132.04Y64.5
X132.04Y38.6
X132.04Y12.7
X134.58Y124.428
X134.58Y119.094
X134.58Y113.252
X134.58Y106.14
X134.58Y98.528
X134.58Y93.194
X134.58Y87.352
X134.58Y80.24
X134.58Y72.628
X134.58Y67.294
X134.58Y61.452
X134.58Y54.34
X134.58Y46.728
X134.58Y41.394
X134.58Y35.552
X134.58Y28.44
X134.58Y20.828
X134.58Y15.494
X134.58Y9.652
X134.58Y2.54
X135.088Y111.474
X135.088Y85.574
X135.088Y59.674
X135.088Y33.774
X135.088Y7.874
X135.596Y114.268
X135.596Y88.368
X135.596Y62.468
X135.596Y36.568
X135.596Y10.668
X136.104Y121.253
X136.104Y118.332
X136.104Y95.353
X136.104Y92.432
X136.104Y69.453
X136.104Y66.532
X136.104Y43.553
X136.104Y40.632
X136.104Y17.653
X136.104Y14.732
X136.866Y128.238
X136.866Y122.65
X136.866Y102.338
X136.866Y96.75
X136.866Y76.438
X136.866Y70.85
X136.866Y50.538
X136.866Y44.95
X136.866Y24.638
X136.866Y19.05
X137.628Y118.332
X137.628Y92.432
X137.628Y66.532
X137.628Y40.632
X137.628Y14.732
X137.666Y121.215
X137.666Y95.315
X137.666Y69.415
X137.666Y43.515
X137.666Y17.615
X138.39Y114.268
X138.39Y88.368
X138.39Y62.468
X138.39Y36.568
X138.39Y10.668
X139.266Y122.015
X139.266Y96.115
X139.266Y70.215
X139.266Y44.315
X139.266Y18.415
X139.787Y120.491
X139.787Y94.591
X139.787Y68.691
X139.787Y42.791
X139.787Y16.891
X139.914Y116.3
X139.914Y90.4
X139.914Y64.5
X139.914Y38.6
X139.914Y12.7
X140.041Y115.03
X140.041Y89.13
X140.041Y63.23
X140.041Y37.33
X140.041Y11.43
X140.105Y113.316
X140.105Y87.415
X140.105Y61.515
X140.105Y35.615
X140.105Y9.715
X140.168Y121.761
X140.168Y95.861
X140.168Y69.961
X140.168Y44.061
X140.168Y18.161
X140.93Y124.047
X140.93Y98.147
X140.93Y72.247
X140.93Y46.347
X140.93Y20.447
X142.073Y113.252
X142.073Y87.352
X142.073Y61.452
X142.073Y35.552
X142.073Y9.652
X142.2Y126.587
X142.2Y108.299
X142.2Y105.886
X142.2Y100.687
X142.2Y82.399
X142.2Y79.986
X142.2Y74.787
X142.2Y56.499
X142.2Y54.086
X142.2Y48.887
X142.2Y30.599
X142.2Y28.186
X142.2Y22.987
X142.2Y4.699
X142.2Y2.286
X144.232Y122.663
X144.232Y121.126
X144.232Y118.332
X144.232Y96.763
X144.232Y95.226
X144.232Y92.432
X144.232Y70.863
X144.232Y69.326
X144.232Y66.532
X144.232Y44.963
X144.232Y43.426
X144.232Y40.632
X144.232Y19.063
X144.232Y17.526
X144.232Y14.732
X144.293Y116.111
X144.293Y90.212
X144.293Y64.311
X144.293Y38.411
X144.293Y12.511
X144.638Y114.065
X144.638Y88.165
X144.638Y62.265
X144.638Y36.365
X144.638Y10.465
X145.629Y111.855
X145.629Y85.955
X145.629Y60.055
X145.629Y34.155
X145.629Y8.255
X146.264Y118.332
X146.264Y92.432
X146.264Y66.532
X146.264Y40.632
X146.264Y14.732
X146.645Y111.22
X146.645Y85.32
X146.645Y59.42
X146.645Y33.52
X146.645Y7.62
X147.026Y114.268
X147.026Y88.368
X147.026Y62.468
X147.026Y36.568
X147.026Y10.668
X147.534Y128.238
X147.534Y102.338
X147.534Y76.438
X147.534Y50.538
X147.534Y24.638
X148.042Y114.268
X148.042Y88.368
X148.042Y62.468
X148.042Y36.568
X148.042Y10.668
X148.169Y124.047
X148.169Y98.147
X148.169Y72.247
X148.169Y46.347
X148.169Y20.447
X148.55Y118.332
X148.55Y92.432
X148.55Y66.532
X148.55Y40.632
X148.55Y14.732
X148.931Y124.428
X148.931Y98.528
X148.931Y72.628
X148.931Y46.728
X148.931Y20.828
X149.185Y111.347
X149.185Y85.447
X149.185Y59.547
X149.185Y33.647
X149.185Y7.747
X149.439Y107.664
X149.439Y81.764
X149.439Y55.864
X149.439Y29.964
X149.439Y4.064
X149.82Y113.76
X149.82Y87.86
X149.82Y61.96
X149.82Y36.06
X149.82Y10.16
X152.36Y121.38
X152.36Y116.3
X152.36Y95.48
X152.36Y90.4
X152.36Y69.58
X152.36Y64.5
X152.36Y43.68
X152.36Y38.6
X152.36Y17.78
X152.36Y12.7
X153.833Y111.372
X153.833Y85.472
X153.833Y59.572
X153.833Y33.672
X153.833Y7.772
X156.213Y111.474
X156.213Y85.574
X156.213Y59.674
X156.213Y33.774
X156.213Y7.874
X157.686Y121.38
X157.686Y95.48
X157.686Y69.58
X157.686Y43.68
X157.686Y17.78
X157.94Y116.3
X157.94Y90.4
X157.94Y64.5
X157.94Y38.6
X157.94Y12.7
X160.48Y124.428
X160.48Y119.094
X160.48Y113.252
X160.48Y106.14
X160.48Y98.528
X160.48Y93.194
X160.48Y87.352
X160.48Y80.24
X160.48Y72.628
X160.48Y67.294
X160.48Y61.452
X160.48Y54.34
X160.48Y46.728
X160.48Y41.394
X160.48Y35.552
X160.48Y28.44
X160.48Y20.828
X160.48Y15.494
X160.48Y9.652
X160.48Y2.54
X160.988Y111.474
X160.988Y85.574
X160.988Y59.674
X160.988Y33.774
X160.988Y7.874
X161.496Y114.268
X161.496Y88.368
X161.496Y62.468
X161.496Y36.568
X161.496Y10.668
X162.004Y121.253
X162.004Y118.332
X162.004Y95.353
X162.004Y92.432
X162.004Y69.453
X162.004Y66.532
X162.004Y43.553
X162.004Y40.632
X162.004Y17.653
X162.004Y14.732
X162.766Y128.238
X162.766Y122.65
X162.766Y102.338
X162.766Y96.75
X162.766Y76.438
X162.766Y70.85
X162.766Y50.538
X162.766Y44.95
X162.766Y24.638
X162.766Y19.05
X163.528Y118.332
X163.528Y92.432
X163.528Y66.532
X163.528Y40.632
X163.528Y14.732
X163.566Y121.215
X163.566Y95.315
X163.566Y69.415
X163.566Y43.515
X163.566Y17.615
X164.29Y114.268
X164.29Y88.368
X164.29Y62.468
X164.29Y36.568
X164.29Y10.668
X165.166Y122.015
X165.166Y96.115
X165.166Y70.215
X165.166Y44.315
X165.166Y18.415
X165.687Y120.491
X165.687Y94.591
X165.687Y68.691
X165.687Y42.791
X165.687Y16.891
X165.814Y116.3
X165.814Y90.4
X165.814Y64.5
X165.814Y38.6
X165.814Y12.7
X165.941Y115.03
X165.941Y89.13
X165.941Y63.23
X165.941Y37.33
X165.941Y11.43
X166.004Y113.316
X166.004Y87.415
X166.004Y61.515
X166.004Y35.615
X166.004Y9.715
X166.068Y121.761
X166.068Y95.861
X166.068Y69.961
X166.068Y44.061
X166.068Y18.161
X166.83Y124.047
X166.83Y98.147
X166.83Y72.247
X166.83Y46.347
X166.83Y20.447
X167.973Y113.252
X167.973Y87.352
X167.973Y61.452
X167.973Y35.552
X167.973Y9.652
X168.1Y126.587
X168.1Y108.299
X168.1Y105.886
X168.1Y100.687
X168.1Y82.399
X168.1Y79.986
X168.1Y74.787
X168.1Y56.499
X168.1Y54.086
X168.1Y48.887
X168.1Y30.599
X168.1Y28.186
X168.1Y22.987
X168.1Y4.699
X168.1Y2.286
X170.132Y122.663
X170.132Y121.126
X170.132Y118.332
X170.132Y96.763
X170.132Y95.226
X170.132Y92.432
X170.132Y70.863
X170.132Y69.326
X170.132Y66.532
X170.132Y44.963
X170.132Y43.426
X170.132Y40.632
X170.132Y19.063
X170.132Y17.526
X170.132Y14.732
X170.194Y116.111
X170.194Y90.212
X170.194Y64.311
X170.194Y38.411
X170.194Y12.511
X170.538Y114.065
X170.538Y88.165
X170.538Y62.265
X170.538Y36.365
X170.538Y10.465
X171.529Y111.855
X171.529Y85.955
X171.529Y60.055
X171.529Y34.155
X171.529Y8.255
X172.164Y118.332
X172.164Y92.432
X172.164Y66.532
X172.164Y40.632
X172.164Y14.732
X172.545Y111.22
X172.545Y85.32
X172.545Y59.42
X172.545Y33.52
X172.545Y7.62
X172.926Y114.268
X172.926Y88.368
X172.926Y62.468
X172.926Y36.568
X172.926Y10.668
X173.434Y128.238
X173.434Y102.338
X173.434Y76.438
X173.434Y50.538
X173.434Y24.638
X173.942Y114.268
X173.942Y88.368
X173.942Y62.468
X173.942Y36.568
X173.942Y10.668
X174.069Y124.047
X174.069Y98.147
X174.069Y72.247
X174.069Y46.347
X174.069Y20.447
X174.45Y118.332
X174.45Y92.432
X174.45Y66.532
X174.45Y40.632
X174.45Y14.732
X174.831Y124.428
X174.831Y98.528
X174.831Y72.628
X174.831Y46.728
X174.831Y20.828
X175.085Y111.347
X175.085Y85.447
X175.085Y59.547
X175.085Y33.647
X175.085Y7.747
X175.339Y107.664
X175.339Y81.764
X175.339Y55.864
X175.339Y29.964
X175.339Y4.064
X175.72Y113.76
X175.72Y87.86
X175.72Y61.96
X175.72Y36.06
X175.72Y10.16
X178.26Y121.38
X178.26Y116.3
X178.26Y95.48
X178.26Y90.4
X178.26Y69.58
X178.26Y64.5
X178.26Y43.68
X178.26Y38.6
X178.26Y17.78
X178.26Y12.7
X179.733Y111.372
X179.733Y85.472
X179.733Y59.572
X179.733Y33.672
X179.733Y7.772
T2
X6.35Y104.87
X6.35Y78.97
X6.35Y53.07
X6.35Y27.17
X6.35Y1.27
X8.89Y104.87
X8.89Y78.97
X8.89Y53.07
X8.89Y27.17
X8.89Y1.27
X11.43Y104.87
X11.43Y78.97
X11.43Y53.07
X11.43Y27.17
X11.43Y1.27
X13.97Y104.87
X13.97Y78.97
X13.97Y53.07
X13.97Y27.17
X13.97Y1.27
X16.51Y104.87
X16.51Y78.97
X16.51Y53.07
X16.51Y27.17
X16.51Y1.27
X19.05Y104.87
X19.05Y78.97
X19.05Y53.07
X19.05Y27.17
X19.05Y1.27
X32.25Y104.87
X32.25Y78.97
X32.25Y53.07
X32.25Y27.17
X32.25Y1.27
X34.79Y104.87
X34.79Y78.97
X34.79Y53.07
X34.79Y27.17
X34.79Y1.27
X37.33Y104.87
X37.33Y78.97
X37.33Y53.07
X37.33Y27.17
X37.33Y1.27
X39.87Y104.87
X39.87Y78.97
X39.87Y53.07
X39.87Y27.17
X39.87Y1.27
X42.41Y104.87
X42.41Y78.97
X42.41Y53.07
X42.41Y27.17
X42.41Y1.27
X44.95Y104.87
X44.95Y78.97
X44.95Y53.07
X44.95Y27.17
X44.95Y1.27
X58.15Y104.87
X58.15Y78.97
X58.15Y53.07
X58.15Y27.17
X58.15Y1.27
X60.69Y104.87
X60.69Y78.97
X60.69Y53.07
X60.69Y27.17
X60.69Y1.27
X63.23Y104.87
X63.23Y78.97
X63.23Y53.07
X63.23Y27.17
X63.23Y1.27
X65.77Y104.87
X65.77Y78.97
X65.77Y53.07
X65.77Y27.17
X65.77Y1.27
X68.31Y104.87
X68.31Y78.97
X68.31Y53.07
X68.31Y27.17
X68.31Y1.27
X70.85Y104.87
X70.85Y78.97
X70.85Y53.07
X70.85Y27.17
X70.85Y1.27
X84.05Y104.87
X84.05Y78.97
X84.05Y53.07
X84.05Y27.17
X84.05Y1.27
X86.59Y104.87
X86.59Y78.97
X86.59Y53.07
X86.59Y27.17
X86.59Y1.27
X89.13Y104.87
X89.13Y78.97
X89.13Y53.07
X89.13Y27.17
X89.13Y1.27
X91.67Y104.87
X91.67Y78.97
X91.67Y53.07
X91.67Y27.17
X91.67Y1.27
X94.21Y104.87
X94.21Y78.97
X94.21Y53.07
X94.21Y27.17
X94.21Y1.27
X96.75Y104.87
X96.75Y78.97
X96.75Y53.07
X96.75Y27.17
X96.75Y1.27
X109.95Y104.87
X109.95Y78.97
X109.95Y53.07
X109.95Y27.17
X109.95Y1.27
X112.49Y104.87
X112.49Y78.97
X112.49Y53.07
X112.49Y27.17
X112.49Y1.27
X115.03Y104.87
X115.03Y78.97
X115.03Y53.07
X115.03Y27.17
X115.03Y1.27
X117.57Y104.87
X117.57Y78.97
X117.57Y53.07
X117.57Y27.17
X117.57Y1.27
X120.11Y104.87
X120.11Y78.97
X120.11Y53.07
X120.11Y27.17
X120.11Y1.27
X122.65Y104.87
X122.65Y78.97
X122.65Y53.07
X122.65Y27.17
X122.65Y1.27
X135.85Y104.87
X135.85Y78.97
X135.85Y53.07
X135.85Y27.17
X135.85Y1.27
X138.39Y104.87
X138.39Y78.97
X138.39Y53.07
X138.39Y27.17
X138.39Y1.27
X140.93Y104.87
X140.93Y78.97
X140.93Y53.07
X140.93Y27.17
X140.93Y1.27
X143.47Y104.87
X143.47Y78.97
X143.47Y53.07
X143.47Y27.17
X143.47Y1.27
X146.01Y104.87
X146.01Y78.97
X146.01Y53.07
X146.01Y27.17
X146.01Y1.27
X148.55Y104.87
X148.55Y78.97
X148.55Y53.07
X148.55Y27.17
X148.55Y1.27
X161.75Y104.87
X161.75Y78.97
X161.75Y53.07
X161.75Y27.17
X161.75Y1.27
X164.29Y104.87
X164.29Y78.97
X164.29Y53.07
X164.29Y27.17
X164.29Y1.27
X166.83Y104.87
X166.83Y78.97
X166.83Y53.07
X166.83Y27.17
X166.83Y1.27
X169.37Y104.87
X169.37Y78.97
X169.37Y53.07
X169.37Y27.17
X169.37Y1.27
X171.91Y104.87
X171.91Y78.97
X171.91Y53.07
X171.91Y27.17
X171.91Y1.27
X174.45Y104.87
X174.45Y78.97
X174.45Y53.07
X174.45Y27.17
X174.45Y1.27
T3
X2.54Y126.46
X2.54Y106.14
X2.54Y100.56
X2.54Y80.24
X2.54Y74.66
X2.54Y54.34
X2.54Y48.76
X2.54Y28.44
X2.54Y22.86
X2.54Y2.54
X22.86Y126.46
X22.86Y106.14
X22.86Y100.56
X22.86Y80.24
X22.86Y74.66
X22.86Y54.34
X22.86Y48.76
X22.86Y28.44
X22.86Y22.86
X22.86Y2.54
X28.44Y126.46
X28.44Y106.14
X28.44Y100.56
X28.44Y80.24
X28.44Y74.66
X28.44Y54.34
X28.44Y48.76
X28.44Y28.44
X28.44Y22.86
X28.44Y2.54
X48.76Y126.46
X48.76Y106.14
X48.76Y100.56
X48.76Y80.24
X48.76Y74.66
X48.76Y54.34
X48.76Y48.76
X48.76Y28.44
X48.76Y22.86
X48.76Y2.54
X54.34Y126.46
X54.34Y106.14
X54.34Y100.56
X54.34Y80.24
X54.34Y74.66
X54.34Y54.34
X54.34Y48.76
X54.34Y28.44
X54.34Y22.86
X54.34Y2.54
X74.66Y126.46
X74.66Y106.14
X74.66Y100.56
X74.66Y80.24
X74.66Y74.66
X74.66Y54.34
X74.66Y48.76
X74.66Y28.44
X74.66Y22.86
X74.66Y2.54
X80.24Y126.46
X80.24Y106.14
X80.24Y100.56
X80.24Y80.24
X80.24Y74.66
X80.24Y54.34
X80.24Y48.76
X80.24Y28.44
X80.24Y22.86
X80.24Y2.54
X100.56Y126.46
X100.56Y106.14
X100.56Y100.56
X100.56Y80.24
X100.56Y74.66
X100.56Y54.34
X100.56Y48.76
X100.56Y28.44
X100.56Y22.86
X100.56Y2.54
X106.14Y126.46
X106.14Y106.14
X106.14Y100.56
X106.14Y80.24
X106.14Y74.66
X106.14Y54.34
X106.14Y48.76
X106.14Y28.44
X106.14Y22.86
X106.14Y2.54
X126.46Y126.46
X126.46Y106.14
X126.46Y100.56
X126.46Y80.24
X126.46Y74.66
X126.46Y54.34
X126.46Y48.76
X126.46Y28.44
X126.46Y22.86
X126.46Y2.54
X132.04Y126.46
X132.04Y106.14
X132.04Y100.56
X132.04Y80.24
X132.04Y74.66
X132.04Y54.34
X132.04Y48.76
X132.04Y28.44
X132.04Y22.86
X132.04Y2.54
X152.36Y126.46
X152.36Y106.14
X152.36Y100.56
X152.36Y80.24
X152.36Y74.66
X152.36Y54.34
X152.36Y48.76
X152.36Y28.44
X152.36Y22.86
X152.36Y2.54
X157.94Y126.46
X157.94Y106.14
X157.94Y100.56
X157.94Y80.24
X157.94Y74.66
X157.94Y54.34
X157.94Y48.76
X157.94Y28.44
X157.94Y22.86
X157.94Y2.54
X178.26Y126.46
X178.26Y106.14
X178.26Y100.56
X178.26Y80.24
X178.26Y74.66
X178.26Y54.34
X178.26Y48.76
X178.26Y28.44
X178.26Y22.86
X178.26Y2.54
M30
